<svg xmlns="http://www.w3.org/2000/svg" viewBox="0 0 800 900" fill="none">
  <defs>
    <linearGradient id="g" x1="0" y1="0" x2="1" y2="1">
      <stop offset="0%" stop-color="#151826"/>
      <stop offset="100%" stop-color="#262c44"/>
    </linearGradient>
  </defs>
  <rect width="800" height="900" rx="48" fill="#0b0d15"/>
  <rect x="40" y="40" width="720" height="820" rx="36" fill="url(#g)" stroke="#3e476b"/>
  <path d="M286 150c18 22 40 33 114 33s96-11 114-33l72 26 78 130-98 66v324c0 34-28 62-62 62H302c-34 0-62-28-62-62V372l-98-66 78-130 66-26z" fill="#101522" stroke="#59617f" stroke-width="10"/>
  <path d="M333 136c6 22 25 49 67 49s61-27 67-49" stroke="#6b7396" stroke-width="10" stroke-linecap="round"/>
  <rect x="290" y="240" width="220" height="160" rx="18" fill="#171d2c" stroke="#47506c" stroke-dasharray="12 10"/>
  <text x="400" y="325" text-anchor="middle" fill="#7f89ac" font-size="28" font-family="Arial, sans-serif">LOGO AREA</text>
</svg>
