<svg xmlns="http://www.w3.org/2000/svg" viewBox="0 0 800 900" fill="none">
  <defs>
    <linearGradient id="g" x1="0" y1="0" x2="1" y2="1">
      <stop offset="0%" stop-color="#161a28"/>
      <stop offset="100%" stop-color="#262f46"/>
    </linearGradient>
  </defs>
  <rect width="800" height="900" rx="48" fill="#0b0d15"/>
  <rect x="40" y="40" width="720" height="820" rx="36" fill="url(#g)" stroke="#3e476b"/>
  <path d="M210 250c0-32 26-58 58-58h214c32 0 58 26 58 58v282c0 32-26 58-58 58H268c-32 0-58-26-58-58V250z" fill="#f5f6fb" stroke="#8591b2" stroke-width="10"/>
  <path d="M540 280h44c48 0 86 38 86 86v50c0 49-38 88-86 88h-44" stroke="#adb6cf" stroke-width="20" stroke-linecap="round"/>
  <rect x="286" y="330" width="200" height="130" rx="16" fill="#e9ebf4" stroke="#8f9ab8" stroke-dasharray="12 10"/>
  <text x="386" y="404" text-anchor="middle" fill="#6d7898" font-size="28" font-family="Arial, sans-serif">LOGO AREA</text>
</svg>
