<svg xmlns="http://www.w3.org/2000/svg" viewBox="0 0 160 160" role="img" aria-labelledby="title desc">
  <title id="title">Skyes Over London logo</title>
  <desc id="desc">Local logo mark for the Dual Lane Funnel tool.</desc>
  <defs>
    <linearGradient id="bg" x1="0" x2="1" y1="0" y2="1">
      <stop offset="0%" stop-color="#6d28d9"/>
      <stop offset="100%" stop-color="#fbbf24"/>
    </linearGradient>
  </defs>
  <rect x="10" y="10" width="140" height="140" rx="34" fill="#070012" stroke="url(#bg)" stroke-width="6"/>
  <path d="M48 52c10-12 25-18 40-18 16 0 30 6 40 18l-14 14c-7-7-16-10-26-10-9 0-18 3-25 10-10 10-10 26 0 36 7 7 16 10 25 10 10 0 19-3 26-10l14 14c-10 12-24 18-40 18-15 0-30-6-40-18-19-20-19-52 0-72z" fill="#f8fafc"/>
  <path d="M61 82h38c8 0 15 7 15 15s-7 15-15 15H61V82z" fill="#22d3ee" opacity=".9"/>
</svg>
